<svg width="16" height="14" viewBox="0 0 16 14" fill="none" xmlns="http://www.w3.org/2000/svg">
<path fill-rule="evenodd" clip-rule="evenodd" d="M9.211 0.278615C10.5075 0.023704 11.6718 0.208626 12.6524 0.681885C12.7059 0.707691 12.7575 0.733709 12.8074 0.759831L13.7683 0.370964C14.7579 -0.0295252 15.8038 0.80815 15.6299 1.8608C16.1011 2.37849 16.1759 3.24349 15.539 3.81317L14.5535 4.69473C14.5656 5.77871 14.4169 6.75059 13.9604 7.83392C13.1466 9.76494 11.9797 11.2172 10.552 12.2274C9.54287 12.9414 8.46317 13.3947 7.37506 13.6387C6.67176 13.7964 6.07512 13.8456 5.63612 13.8346C4.29601 13.8498 3.06162 13.5664 1.96028 13.0842C1.30499 12.7974 0.82359 12.501 0.534289 12.2776C-0.511581 11.4696 0.0838452 9.79535 1.40501 9.8292C1.65863 9.8357 1.89619 9.83198 2.11837 9.81909C1.69768 9.32031 1.47438 8.81876 1.38369 8.40604C1.35219 8.2627 1.34433 8.12065 1.3572 7.98349C1.26989 7.87815 1.18851 7.76887 1.11307 7.65581C0.578511 6.85464 0.420788 6.03102 0.465062 5.32777C0.468254 5.2844 0.469453 5.26812 0.471024 5.25188L0.474776 5.21677C0.498818 5.01251 0.56444 4.82813 0.660803 4.66845C0.377714 3.76662 0.441976 2.85978 0.708677 2.00598C0.79542 1.72828 0.886741 1.51109 0.960851 1.36533C1.40241 0.496875 2.58481 0.355927 3.21815 1.09625C4.21534 2.2619 5.20031 2.95496 6.13971 3.29079C6.25625 3.33246 6.36821 3.36746 6.47532 3.39647C6.77435 1.50897 8.01677 0.380072 9.211 0.278615ZM7.80984 4.99716C7.80984 4.99716 5.33755 5.5705 2.57881 2.34573C2.57881 2.34573 1.50395 4.45974 3.3672 5.74943C3.3672 5.74943 2.75837 5.85696 2.25622 5.49889C2.25622 5.49889 2.04117 7.32601 4.2627 8.04258H3.08032C3.08032 8.04258 3.40312 9.51163 5.48099 9.834C5.48099 9.834 4.6212 10.9805 1.82632 10.9089C1.82632 10.9089 3.40312 12.1269 5.80379 12.091C5.80379 12.091 10.2462 12.3061 12.3602 7.28989C12.88 6.05629 12.826 4.88964 12.7901 4.31608L14.1516 3.09821L12.7901 3.34897C12.7901 3.34897 13.7217 2.66832 13.8295 2.02336L12.3245 2.6324C12.3245 2.6324 11.1959 1.61131 9.27889 2.02336C9.27868 2.02336 7.52338 2.38165 7.80984 4.99716Z" fill="#37474F"/>
</svg>
